<svg width="29" height="29" viewBox="0 0 29 29" fill="none" xmlns="http://www.w3.org/2000/svg">
<path d="M16.5904 25.375C16.378 25.7412 16.0731 26.0452 15.7062 26.2565C15.3393 26.4678 14.9234 26.5791 14.5 26.5791C14.0766 26.5791 13.6607 26.4678 13.2938 26.2565C12.9269 26.0452 12.622 25.7412 12.4096 25.375M21.75 9.66669C21.75 7.74387 20.9862 5.8998 19.6265 4.54016C18.2669 3.18052 16.4228 2.41669 14.5 2.41669C12.5772 2.41669 10.7331 3.18052 9.37348 4.54016C8.01384 5.8998 7.25 7.74387 7.25 9.66669C7.25 18.125 3.625 20.5417 3.625 20.5417H25.375C25.375 20.5417 21.75 18.125 21.75 9.66669Z" stroke="#B1B1B1" stroke-width="2" stroke-linecap="round" stroke-linejoin="round"/>
</svg>
