<svg width="38" height="38" viewBox="0 0 38 38" fill="none" xmlns="http://www.w3.org/2000/svg">
<circle cx="19" cy="12.6667" r="3.75" stroke="#222222" stroke-width="2" stroke-linecap="round"/>
<path d="M21.7708 9.89583C22.1231 9.28564 21.375 9.89583 22.966 8.67989C23.598 8.36826 24.3081 8.25101 25.0067 8.34298C25.7052 8.43495 26.3609 8.732 26.8906 9.19657C27.4203 9.66115 27.8004 10.2724 27.9828 10.953C28.1652 11.6335 28.1416 12.3529 27.9151 13.0201C27.6886 13.6873 27.2694 14.2724 26.7104 14.7013C26.1514 15.1303 25.4778 15.3838 24.7747 15.4299C24.0716 15.476 23.3706 15.3125 22.7604 14.9602" stroke="#222222" stroke-width="2"/>
<path d="M16.2292 9.89583C15.8769 9.28564 15.6659 8.99153 15.034 8.67989C14.402 8.36826 13.6919 8.25101 12.9933 8.34298C12.2948 8.43495 11.6391 8.732 11.1094 9.19657C10.5797 9.66115 10.1996 10.2724 10.0172 10.953C9.83485 11.6335 9.8584 12.3529 10.0849 13.0201C10.3114 13.6873 10.7306 14.2724 11.2896 14.7013C11.8486 15.1303 12.5222 15.3838 13.2253 15.4299C13.9284 15.476 14.6294 15.3125 15.2396 14.9602" stroke="#222222" stroke-width="2"/>
<path d="M19 19.7917C25.9619 19.7917 27.3581 25.8634 27.6381 28.2987C27.7012 28.8474 27.2606 29.2917 26.7083 29.2917H11.2917C10.7394 29.2917 10.2988 28.8474 10.3619 28.2987C10.6419 25.8634 12.0381 19.7917 19 19.7917Z" stroke="#222222" stroke-width="2" stroke-linecap="round"/>
<path d="M24.5412 18.208V17.208H24.5411L24.5412 18.208ZM30.6965 25.0381L31.6759 24.8362L31.6759 24.8362L30.6965 25.0381ZM27.2023 26.125L26.2417 26.4029L26.4507 27.125H27.2023V26.125ZM20.7228 19.9287L19.9844 19.2544L18.7437 20.6132L20.5587 20.9152L20.7228 19.9287ZM24.5412 18.208V19.208C26.229 19.208 27.3807 20.1069 28.2119 21.3618C29.0601 22.6423 29.5037 24.205 29.7171 25.24L30.6965 25.0381L31.6759 24.8362C31.442 23.7018 30.9339 21.8494 29.8793 20.2573C28.8076 18.6395 27.1053 17.208 24.5412 17.208V18.208ZM30.6965 25.0381L29.7171 25.24C29.7152 25.2311 29.7142 25.2125 29.7202 25.1902C29.7259 25.1694 29.7353 25.154 29.7439 25.144C29.7611 25.1242 29.7753 25.125 29.7697 25.125V26.125V27.125C30.9303 27.125 31.9359 26.0976 31.6759 24.8362L30.6965 25.0381ZM29.7697 26.125V25.125H27.2023V26.125V27.125H29.7697V26.125ZM27.2023 26.125L28.1629 25.8471C27.4068 23.234 25.5123 19.7118 20.887 18.9423L20.7228 19.9287L20.5587 20.9152C24.0853 21.5019 25.5837 24.1286 26.2417 26.4029L27.2023 26.125ZM20.7228 19.9287L21.4613 20.603C22.2219 19.7701 23.2028 19.2081 24.5413 19.208L24.5412 18.208L24.5411 17.208C22.545 17.2082 21.0541 18.083 19.9844 19.2544L20.7228 19.9287Z" fill="#222222"/>
<path d="M13.4579 18.208V17.208H13.4579L13.4579 18.208ZM17.2773 19.9287L17.4414 20.9152L19.2564 20.6132L18.0157 19.2544L17.2773 19.9287ZM10.7978 26.125V27.125H11.5495L11.7584 26.4029L10.7978 26.125ZM7.30365 25.0381L6.32425 24.8362L6.32425 24.8362L7.30365 25.0381ZM13.4579 18.208V19.208C14.7968 19.208 15.7783 19.7701 16.5388 20.603L17.2773 19.9287L18.0157 19.2544C16.9459 18.0827 15.4543 17.208 13.4579 17.208V18.208ZM17.2773 19.9287L17.1132 18.9423C12.4877 19.7118 10.5933 23.234 9.83719 25.8471L10.7978 26.125L11.7584 26.4029C12.4165 24.1286 13.9148 21.5018 17.4414 20.9152L17.2773 19.9287ZM10.7978 26.125V25.125H8.23041V26.125V27.125H10.7978V26.125ZM8.23041 26.125V25.125C8.22486 25.125 8.23902 25.1242 8.25617 25.144C8.26477 25.154 8.27423 25.1694 8.27988 25.1902C8.28593 25.2125 8.28489 25.2311 8.28305 25.24L7.30365 25.0381L6.32425 24.8362C6.06417 26.0976 7.06981 27.125 8.23041 27.125V26.125ZM7.30365 25.0381L8.28305 25.24C8.49645 24.205 8.93988 22.6424 9.78792 21.3618C10.619 20.107 11.7704 19.2081 13.458 19.208L13.4579 18.208L13.4579 17.208C10.8939 17.2082 9.19185 18.6397 8.12044 20.2575C7.06605 21.8496 6.5581 23.7019 6.32425 24.8362L7.30365 25.0381Z" fill="#222222"/>
</svg>
