<svg width="25" height="23" viewBox="0 0 25 23" fill="none" xmlns="http://www.w3.org/2000/svg">
<path d="M12.5 5.61181C12.5 4.3939 12.0162 3.22587 11.155 2.36468C10.2938 1.50348 9.12578 1.01967 7.90787 1.01967H1.01967V18.2402H9.05591C9.96934 18.2402 10.8454 18.603 11.4913 19.2489C12.1371 19.8948 12.5 20.7708 12.5 21.6843M12.5 5.61181V21.6843M12.5 5.61181C12.5 4.3939 12.9838 3.22587 13.845 2.36468C14.7062 1.50348 15.8742 1.01967 17.0921 1.01967H23.9803V18.2402H15.9441C15.0307 18.2402 14.1547 18.603 13.5088 19.2489C12.8629 19.8948 12.5 20.7708 12.5 21.6843" stroke="#1E1E1E" stroke-width="2.03934" stroke-linecap="round" stroke-linejoin="round"/>
</svg>
