<svg width="101" height="22" viewBox="0 0 101 22" fill="none" xmlns="http://www.w3.org/2000/svg">
<path fill-rule="evenodd" clip-rule="evenodd" d="M29.3652 6.53302C29.3652 5.89997 28.8876 5.38679 28.2985 5.38679H27.2318C26.6427 5.38679 26.1652 5.89997 26.1652 6.53302V16.467C26.1652 17.1 26.6427 17.6132 27.2318 17.6132H28.2985C28.8876 17.6132 29.3652 17.1 29.3652 16.467V6.53302ZM21.931 7.83207H22.9977C23.5868 7.83207 24.0644 8.35757 24.0644 9.00581V16.4395C24.0644 17.0877 23.5868 17.6132 22.9977 17.6132H21.931C21.3419 17.6132 20.8644 17.0877 20.8644 16.4395V9.00581C20.8644 8.35757 21.3419 7.83207 21.931 7.83207ZM17.5993 10.4811H16.5326C15.9435 10.4811 15.4659 11.0133 15.4659 11.6698V16.4245C15.4659 17.081 15.9435 17.6132 16.5326 17.6132H17.5993C18.1884 17.6132 18.6659 17.081 18.6659 16.4245V11.6698C18.6659 11.0133 18.1884 10.4811 17.5993 10.4811ZM12.2985 12.9264H11.2318C10.6427 12.9264 10.1652 13.451 10.1652 14.0981V16.4415C10.1652 17.0886 10.6427 17.6132 11.2318 17.6132H12.2985C12.8876 17.6132 13.3652 17.0886 13.3652 16.4415V14.0981C13.3652 13.451 12.8876 12.9264 12.2985 12.9264Z" fill="black"/>
<path fill-rule="evenodd" clip-rule="evenodd" d="M45.9364 7.80213C48.4236 7.80223 50.8156 8.72432 52.6181 10.3778C52.7538 10.5054 52.9708 10.5038 53.1044 10.3742L54.4019 9.11072C54.4696 9.04496 54.5074 8.95588 54.5068 8.8632C54.5062 8.77052 54.4674 8.68187 54.3989 8.61688C49.6679 4.24217 42.2042 4.24217 37.4732 8.61688C37.4047 8.68183 37.3658 8.77044 37.3652 8.86313C37.3645 8.95581 37.4022 9.04491 37.4698 9.11072L38.7677 10.3742C38.9013 10.504 39.1184 10.5056 39.2541 10.3778C41.0568 8.72421 43.4491 7.80212 45.9364 7.80213ZM45.9331 12.0224C47.2904 12.0223 48.5993 12.5341 49.6054 13.4582C49.7415 13.5893 49.9559 13.5865 50.0885 13.4518L51.3758 12.1325C51.4436 12.0633 51.4812 11.9694 51.4802 11.8718C51.4792 11.7743 51.4398 11.6812 51.3706 11.6134C48.3068 8.72257 43.562 8.72257 40.4982 11.6134C40.429 11.6812 40.3895 11.7743 40.3886 11.8719C40.3877 11.9695 40.4254 12.0634 40.4934 12.1325L41.7803 13.4518C41.9129 13.5865 42.1273 13.5893 42.2634 13.4582C43.2688 12.5347 44.5767 12.023 45.9331 12.0224ZM48.4575 14.816C48.4594 14.9213 48.4224 15.0229 48.3551 15.0967L46.1784 17.5514C46.1146 17.6236 46.0276 17.6642 45.9368 17.6642C45.8461 17.6642 45.7591 17.6236 45.6953 17.5514L43.5182 15.0967C43.451 15.0228 43.414 14.9212 43.416 14.8159C43.418 14.7105 43.4588 14.6108 43.5288 14.5401C44.9189 13.2262 46.9548 13.2262 48.3449 14.5401C48.4148 14.6108 48.4556 14.7106 48.4575 14.816Z" fill="black"/>
<rect opacity="0.35" x="63.0068" y="5.5" width="24" height="12" rx="3.8" stroke="black"/>
<path opacity="0.4" d="M88.5068 9.5V13.5755C89.3115 13.2303 89.8348 12.4273 89.8348 11.5377C89.8348 10.6481 89.3115 9.84517 88.5068 9.5Z" fill="black"/>
<rect x="64.5068" y="7" width="21" height="9" rx="2.5" fill="black"/>
</svg>
