<svg width="16" height="16" viewBox="0 0 16 16" fill="none" xmlns="http://www.w3.org/2000/svg">
<rect width="15.3192" height="15.3192" transform="scale(1.04444)" fill="white"/>
<path d="M7.33333 12.6667C10.2788 12.6667 12.6667 10.2789 12.6667 7.33336C12.6667 4.38784 10.2788 2.00002 7.33333 2.00002C4.38781 2.00002 1.99999 4.38784 1.99999 7.33336C1.99999 10.2789 4.38781 12.6667 7.33333 12.6667Z" fill="white"/>
<path d="M14 14L11.1 11.1M12.6667 7.33336C12.6667 10.2789 10.2788 12.6667 7.33333 12.6667C4.38781 12.6667 1.99999 10.2789 1.99999 7.33336C1.99999 4.38784 4.38781 2.00002 7.33333 2.00002C10.2788 2.00002 12.6667 4.38784 12.6667 7.33336Z" stroke="#1E1E1E" stroke-width="2.08889" stroke-linecap="round" stroke-linejoin="round"/>
</svg>
